<?xml version="1.0" standalone="no"?>
<!DOCTYPE svg PUBLIC "-//W3C//DTD SVG 20010904//EN"
 "http://www.w3.org/TR/2001/REC-SVG-20010904/DTD/svg10.dtd">
<svg version="1.0" xmlns="http://www.w3.org/2000/svg"
 width="36px" height="36px" viewBox="0 0 512.000000 512.000000"
 preserveAspectRatio="xMidYMid meet">

<g transform="translate(0.000000,512.000000) scale(0.100000,-0.100000)"
fill="#000000" stroke="none">
<path d="M1145 5049 c-501 -68 -879 -384 -1053 -880 -232 -660 -2 -1483 661
-2364 333 -443 859 -988 1344 -1392 187 -156 415 -331 448 -343 37 -14 62 0
217 120 306 238 576 477 868 769 333 334 508 531 715 806 743 990 953 1872
612 2575 -167 345 -456 583 -817 675 -260 67 -525 53 -810 -41 -139 -46 -303
-129 -419 -212 -94 -66 -259 -220 -320 -297 l-31 -40 -32 40 c-60 76 -223 231
-309 292 -181 130 -413 231 -626 273 -124 25 -342 34 -448 19z m270 -159 c234
-19 458 -94 650 -218 151 -97 305 -246 407 -395 70 -103 106 -98 197 27 392
540 1150 750 1680 465 293 -157 493 -439 583 -819 29 -125 36 -427 13 -576
-41 -271 -140 -557 -284 -829 l-59 -110 -234 -5 c-188 -4 -239 -8 -254 -20
-10 -8 -75 -61 -143 -118 -68 -57 -127 -100 -131 -95 -4 4 -56 159 -115 343
-59 184 -113 345 -121 358 -21 32 -53 42 -87 28 -23 -9 -58 -70 -220 -385
-106 -205 -197 -373 -202 -373 -5 0 -174 260 -376 578 -202 318 -376 585 -387
592 -17 11 -26 11 -55 -1 -31 -13 -64 -65 -318 -485 -156 -259 -285 -470 -286
-469 -2 3 -153 1336 -153 1354 0 5 -12 22 -26 37 -31 31 -76 34 -102 8 -10
-10 -106 -281 -219 -623 -111 -332 -223 -666 -249 -742 l-46 -138 -136 3 -135
3 -39 63 c-170 278 -312 626 -374 917 -26 119 -28 148 -28 350 -1 247 10 321
71 499 147 424 465 707 863 765 41 6 86 13 100 15 47 7 95 6 215 -4z m56
-2162 c64 -573 69 -614 90 -630 30 -25 81 -23 106 5 12 12 155 244 318 515
163 270 300 492 303 492 4 0 173 -262 377 -581 203 -320 379 -587 390 -595 29
-21 63 -17 88 9 12 13 101 176 197 364 96 187 177 339 180 336 3 -2 50 -144
105 -315 85 -264 104 -314 127 -331 17 -13 34 -18 50 -14 14 4 107 74 209 157
l184 150 152 0 c84 0 153 -3 153 -6 0 -3 -27 -48 -60 -101 -215 -341 -511
-695 -944 -1128 -296 -295 -575 -541 -874 -769 l-62 -47 -108 83 c-299 231
-539 444 -832 738 -252 251 -472 492 -624 681 -109 136 -261 344 -272 372 -6
16 4 17 117 17 99 0 126 3 140 16 11 10 99 259 216 610 109 326 199 591 202
589 2 -2 34 -280 72 -617z"/>
</g>
</svg>
