<?xml version="1.0" standalone="no"?>
<!DOCTYPE svg PUBLIC "-//W3C//DTD SVG 20010904//EN"
 "http://www.w3.org/TR/2001/REC-SVG-20010904/DTD/svg10.dtd">
<svg version="1.0" xmlns="http://www.w3.org/2000/svg"
 width="36px" height="36px" viewBox="0 0 512.000000 512.000000"
 preserveAspectRatio="xMidYMid meet">

<g transform="translate(0.000000,512.000000) scale(0.100000,-0.100000)"
fill="#000000" stroke="none">
<path d="M1656 4779 l-26 -20 -1 -332 -1 -332 -86 -81 c-48 -44 -181 -177
-297 -295 l-210 -214 -333 -5 -334 -5 -24 -28 c-31 -36 -31 -71 1 -102 l24
-25 321 0 320 0 0 -350 0 -350 -320 0 -321 0 -24 -25 c-33 -32 -33 -78 0 -110
l24 -25 321 0 320 0 0 -344 0 -345 -321 -3 -321 -3 -24 -28 c-29 -34 -31 -66
-3 -101 l20 -26 327 0 328 0 307 -306 307 -307 0 -328 0 -328 26 -20 c35 -28
67 -26 101 3 l28 24 3 321 3 321 345 0 344 0 0 -320 0 -321 25 -24 c32 -33 78
-33 110 0 l25 24 0 321 0 320 350 0 350 0 0 -320 0 -321 25 -24 c31 -32 66
-32 102 -1 l28 24 3 329 3 329 301 302 301 302 328 0 328 0 20 26 c28 35 26
67 -3 101 l-24 28 -321 3 -321 3 0 344 0 344 326 3 326 3 19 24 c26 32 24 77
-6 106 l-24 25 -321 0 -320 0 0 350 0 350 324 0 325 0 20 26 c28 35 26 67 -3
101 l-24 28 -334 3 -333 4 -67 76 c-37 43 -168 174 -292 292 l-224 215 -3 333
-4 334 -28 24 c-34 29 -66 31 -101 3 l-26 -20 0 -325 0 -324 -350 0 -350 0 0
320 0 321 -25 24 c-15 16 -36 25 -55 25 -19 0 -40 -9 -55 -25 l-25 -24 0 -321
0 -320 -344 0 -345 0 -3 321 -3 321 -28 24 c-34 29 -66 31 -101 3z m2031
-1092 l263 -262 0 -865 0 -865 -263 -262 -262 -263 -860 0 -860 0 -267 267
-268 268 0 860 0 860 263 262 262 263 865 0 865 0 262 -263z"/>
<path d="M1594 3656 c-137 -64 -191 -232 -117 -367 100 -185 356 -185 456 0
97 178 -27 391 -228 391 -42 0 -75 -7 -111 -24z m165 -150 c31 -17 51 -54 51
-97 0 -46 -56 -99 -105 -99 -29 0 -45 8 -71 34 -88 88 13 219 125 162z"/>
<path d="M2312 3563 c-12 -10 -194 -211 -406 -448 -342 -381 -386 -435 -391
-470 -4 -22 -5 -236 -3 -475 l3 -435 30 -55 c34 -61 97 -114 155 -130 26 -7
316 -10 882 -8 l843 3 41 22 c22 12 56 39 74 59 69 79 65 21 65 929 0 669 -3
827 -14 859 -19 54 -77 115 -136 142 l-50 24 -536 0 c-497 0 -538 -1 -557 -17z
m1101 -167 c14 -13 28 -39 32 -57 3 -19 5 -382 3 -807 l-3 -774 -33 -29 -32
-29 -820 0 -820 0 -32 29 -33 29 -3 390 -3 390 288 4 c317 4 325 5 397 68 20
18 47 52 59 74 21 40 22 53 25 389 l3 347 473 0 473 0 26 -24z m-1133 -381 l0
-245 -29 -32 -29 -33 -221 -3 c-122 -2 -221 0 -221 3 0 7 490 555 496 555 2 0
4 -110 4 -245z"/>
</g>
</svg>
