<?xml version="1.0" standalone="no"?>
<!DOCTYPE svg PUBLIC "-//W3C//DTD SVG 20010904//EN"
 "http://www.w3.org/TR/2001/REC-SVG-20010904/DTD/svg10.dtd">
<svg version="1.0" xmlns="http://www.w3.org/2000/svg"
 width="36px" height="36px" viewBox="0 0 512.000000 512.000000"
 preserveAspectRatio="xMidYMid meet">

<g transform="translate(0.000000,512.000000) scale(0.100000,-0.100000)"
fill="#FFFFFF" stroke="none">
<path d="M875 5095 c-130 -31 -287 -106 -401 -191 -226 -166 -375 -394 -446
-679 -29 -117 -31 -370 -4 -514 84 -454 397 -1040 878 -1643 759 -951 1726
-1707 2518 -1968 211 -70 334 -92 510 -93 175 0 271 14 409 59 289 95 529 294
670 555 162 301 143 560 -58 759 -147 146 -300 226 -886 465 -314 128 -452
165 -608 165 -102 0 -167 -14 -243 -53 -157 -79 -255 -209 -330 -437 -15 -47
-29 -87 -30 -88 -3 -5 -172 130 -334 267 -160 136 -658 631 -789 785 -73 85
-237 289 -293 362 -6 8 22 22 89 44 54 18 126 45 160 61 178 84 307 269 321
462 8 115 -36 329 -108 527 -45 126 -237 567 -304 700 -126 249 -257 390 -415
446 -75 27 -218 31 -306 9z m257 -258 c105 -61 179 -172 303 -455 46 -103 106
-236 135 -297 95 -200 151 -366 183 -540 17 -91 10 -160 -21 -222 -60 -116
-260 -219 -465 -239 -86 -8 -121 -24 -147 -67 -40 -65 -32 -86 102 -270 208
-286 418 -528 718 -827 299 -300 522 -493 826 -720 132 -98 152 -110 188 -110
88 0 121 40 136 163 19 155 88 342 154 414 56 63 106 93 174 103 133 22 285
-22 723 -210 605 -259 729 -352 729 -547 -1 -271 -258 -585 -570 -698 -105
-38 -206 -55 -318 -55 -265 0 -488 60 -817 219 -1119 543 -2420 1909 -2803
2946 -87 236 -107 339 -106 555 0 150 3 173 27 253 79 256 239 447 470 563
110 56 183 74 269 70 49 -2 78 -10 110 -29z"/>
</g>
</svg>
