<?xml version="1.0" standalone="no"?>
<!DOCTYPE svg PUBLIC "-//W3C//DTD SVG 20010904//EN"
 "http://www.w3.org/TR/2001/REC-SVG-20010904/DTD/svg10.dtd">
<svg version="1.0" xmlns="http://www.w3.org/2000/svg"
 width="36px" height="36px" viewBox="0 0 512.000000 512.000000"
 preserveAspectRatio="xMidYMid meet">

<g transform="translate(0.000000,512.000000) scale(0.100000,-0.100000)"
fill="#000000" stroke="none">
<path d="M1829 4765 c-617 -100 -1127 -497 -1365 -1062 -222 -528 -174 -1132
129 -1618 353 -567 1020 -896 1675 -824 103 11 308 53 348 71 34 16 42 55 16
81 l-21 20 -108 -26 c-169 -41 -236 -49 -413 -50 -193 0 -335 22 -507 78 -578
190 -994 655 -1125 1258 -30 140 -33 471 -4 622 102 551 476 1015 997 1238
311 133 688 163 1029 80 350 -84 676 -292 912 -580 66 -81 95 -92 124 -48 16
25 16 27 -19 78 -20 29 -70 89 -112 134 -245 266 -581 454 -950 533 -130 28
-474 37 -606 15z"/>
<path d="M1740 4381 c-42 -13 -89 -40 -192 -109 -83 -55 -98 -69 -98 -92 0
-32 17 -50 46 -50 12 0 64 28 115 62 150 98 189 111 272 87 50 -14 99 -58 135
-123 38 -66 109 -130 169 -150 82 -28 151 -21 373 39 113 30 214 55 226 55 69
0 136 -45 197 -134 19 -28 55 -34 75 -14 21 21 13 63 -19 112 -53 79 -159 136
-252 136 -24 0 -137 -25 -252 -56 -165 -44 -221 -55 -262 -52 -71 6 -125 43
-165 115 -42 74 -98 130 -157 156 -50 22 -168 32 -211 18z"/>
<path d="M1255 4031 c-233 -38 -431 -183 -531 -386 -51 -106 -41 -218 26 -285
86 -86 200 -51 285 89 45 75 121 146 193 179 54 26 64 27 217 27 175 0 204 8
247 66 71 95 -11 251 -156 294 -60 18 -214 27 -281 16z m228 -108 c51 -8 98
-41 122 -86 l20 -38 -29 -25 c-27 -24 -33 -25 -95 -17 -187 23 -329 -17 -454
-127 -20 -18 -62 -69 -92 -115 -30 -45 -61 -85 -70 -89 -86 -32 -120 81 -60
194 39 72 136 174 209 221 132 86 265 110 449 82z"/>
<path d="M3195 3859 c-295 -46 -550 -179 -754 -395 -227 -240 -345 -541 -344
-879 2 -612 433 -1131 1040 -1252 120 -23 356 -23 476 0 48 10 127 31 175 48
523 184 862 660 862 1214 0 342 -129 654 -370 895 -52 53 -126 118 -164 144
-138 98 -315 175 -486 212 -88 19 -347 27 -435 13z m409 -114 c114 -24 258
-77 351 -131 591 -343 774 -1097 403 -1666 -235 -361 -668 -570 -1089 -528
-288 30 -522 139 -726 341 -144 142 -254 332 -310 534 -25 93 -27 113 -27 295
0 180 2 203 27 293 125 463 492 795 964 872 108 18 296 13 407 -10z"/>
<path d="M2843 3461 c-62 -39 -79 -110 -43 -181 26 -51 25 -64 -5 -84 -23 -15
-29 -15 -71 -1 -35 12 -54 13 -83 5 -119 -32 -138 -201 -28 -253 19 -9 39 -17
45 -17 5 0 17 -12 27 -26 24 -37 8 -67 -52 -96 -56 -28 -83 -61 -89 -114 -10
-78 59 -154 139 -154 25 0 58 10 91 29 28 16 68 33 89 36 l38 7 -26 -48 c-45
-83 -24 -147 60 -185 54 -25 119 -24 173 3 34 16 54 36 84 84 40 64 77 90 141
101 25 4 41 -2 76 -29 104 -79 120 -82 186 -43 73 42 90 89 60 163 -20 46 -48
77 -87 93 l-30 12 47 18 c26 10 56 26 67 36 69 62 62 187 -14 237 -13 9 -53
21 -88 29 -85 18 -109 31 -126 73 -13 30 -13 42 1 92 17 68 8 115 -31 161 -80
95 -244 36 -244 -88 0 -39 -28 -56 -58 -35 -13 9 -22 26 -22 40 0 108 -139
190 -227 135z m97 -91 c11 -6 21 -26 25 -52 13 -76 50 -123 113 -143 65 -20
156 37 168 103 10 64 14 72 38 72 42 0 51 -23 36 -98 -27 -145 49 -245 203
-267 55 -8 77 -26 77 -60 0 -26 -42 -55 -80 -55 -29 0 -77 -27 -90 -49 -16
-31 -12 -86 10 -113 10 -14 39 -32 63 -42 55 -21 75 -56 47 -81 -17 -16 -20
-15 -57 18 -62 56 -99 70 -163 64 -32 -3 -79 -16 -107 -31 -50 -25 -67 -41
-123 -123 -31 -44 -63 -60 -103 -49 -49 13 -51 20 -22 70 35 60 30 108 -16
150 -30 26 -36 28 -92 23 -39 -3 -81 -16 -121 -37 -70 -35 -99 -33 -94 9 2 17
13 30 33 40 149 69 150 237 1 309 -38 18 -47 27 -44 45 3 23 31 27 90 12 45
-12 94 3 138 43 54 48 64 103 31 177 -16 36 -18 51 -10 61 14 17 24 17 49 4z"/>
<path d="M3737 3452 c-23 -25 -22 -28 18 -114 155 -337 151 -755 -11 -1097
-118 -250 -294 -441 -543 -587 -73 -43 -87 -55 -89 -79 -4 -31 18 -55 48 -55
21 0 186 99 265 159 89 67 212 196 283 297 72 101 158 270 197 389 65 198 83
460 46 677 -21 118 -80 302 -122 379 -28 50 -64 63 -92 31z"/>
<path d="M2873 2254 c-23 -8 -60 -35 -82 -59 -133 -144 -33 -368 165 -367 83
1 158 50 199 131 28 55 18 158 -21 213 -56 80 -169 116 -261 82z m121 -98
c124 -52 87 -226 -49 -226 -26 0 -45 9 -73 34 -32 30 -37 40 -37 79 0 56 28
97 76 114 44 15 44 15 83 -1z"/>
<path d="M1950 3691 c-103 -33 -160 -106 -160 -206 0 -165 177 -265 317 -179
58 35 103 114 103 179 0 64 -45 144 -100 177 -49 29 -120 42 -160 29z m122
-130 c28 -25 33 -36 33 -76 0 -40 -5 -51 -33 -76 -70 -63 -182 -18 -182 74 0
95 111 142 182 78z"/>
<path d="M1162 3213 c-28 -11 -32 -40 -12 -99 11 -31 20 -62 20 -68 0 -6 -21
-19 -46 -30 -25 -10 -72 -38 -105 -63 l-60 -44 -40 35 c-40 37 -76 45 -97 24
-24 -24 -13 -61 29 -104 l42 -43 -28 -68 c-18 -44 -29 -95 -32 -145 l-6 -76
-46 -7 c-53 -8 -81 -29 -81 -60 0 -38 24 -48 89 -41 l58 7 20 -48 c11 -26 42
-78 70 -114 l49 -65 -33 -49 c-37 -55 -40 -76 -17 -99 31 -31 61 -20 99 38
l36 53 62 -25 c38 -15 90 -27 134 -30 l72 -5 12 -56 c13 -66 23 -81 55 -81 39
0 57 27 49 78 -4 24 -9 50 -12 57 -3 9 19 24 59 42 35 15 83 43 107 62 l44 33
34 -41 c38 -45 69 -53 96 -23 24 27 21 39 -22 96 l-40 51 29 60 c16 33 30 68
30 77 0 26 12 28 71 13 47 -13 56 -13 76 1 30 19 30 59 1 78 -13 7 -46 19 -74
26 -52 11 -52 12 -59 58 -3 26 -9 56 -11 68 -5 18 3 25 50 44 57 23 73 43 61
80 -10 31 -49 35 -105 12 l-50 -21 -29 42 c-16 23 -43 55 -60 72 l-31 29 47
48 c43 43 46 50 37 75 -16 47 -55 43 -120 -12 l-54 -47 -53 18 c-28 10 -85 20
-126 23 l-74 6 -24 70 c-28 84 -50 105 -91 88z m314 -298 c288 -141 288 -549
-1 -691 -54 -26 -70 -29 -160 -29 -93 0 -105 2 -167 33 -83 41 -158 119 -189
200 -32 80 -32 204 0 284 26 67 95 148 158 184 72 43 120 54 214 51 70 -2 96
-8 145 -32z"/>
<path d="M1206 2785 c-57 -20 -87 -45 -113 -95 -83 -157 61 -335 231 -286 84
25 146 107 146 193 -1 81 -69 171 -147 192 -49 14 -69 13 -117 -4z m120 -110
c34 -23 48 -68 34 -109 -23 -72 -107 -91 -161 -37 -38 39 -39 87 -3 130 21 26
33 31 68 31 23 0 51 -7 62 -15z"/>
<path d="M4312 1618 c-17 -17 -15 -40 8 -98 11 -28 20 -59 20 -69 0 -14 -60
-53 -232 -150 -127 -72 -238 -131 -247 -131 -9 0 -38 27 -64 60 -39 49 -53 60
-77 60 -23 0 -33 -6 -42 -25 -10 -22 -7 -32 27 -80 20 -30 53 -69 73 -86 32
-29 40 -31 91 -27 46 4 74 16 154 62 54 32 100 56 102 54 4 -5 50 -81 78 -130
l27 -47 -65 -37 c-81 -45 -95 -58 -95 -92 0 -33 218 -423 262 -469 117 -123
350 -84 431 72 28 56 37 111 26 170 -13 68 -242 472 -277 488 -21 10 -35 5
-107 -33 -46 -25 -86 -42 -88 -40 -11 12 -97 162 -97 170 0 5 38 29 84 54 117
64 143 99 137 181 -2 24 -40 125 -54 143 -12 15 -59 16 -75 0z m272 -776 c115
-205 124 -236 89 -309 -37 -78 -156 -117 -230 -73 -46 27 -46 27 -165 235
l-96 170 76 44 c43 24 106 61 142 82 36 21 68 38 71 39 4 0 54 -85 113 -188z"/>
</g>
</svg>
