<?xml version="1.0" standalone="no"?>
<!DOCTYPE svg PUBLIC "-//W3C//DTD SVG 20010904//EN"
 "http://www.w3.org/TR/2001/REC-SVG-20010904/DTD/svg10.dtd">
<svg version="1.0" xmlns="http://www.w3.org/2000/svg"
 width="36px" height="36px" viewBox="0 0 512.000000 512.000000"
 preserveAspectRatio="xMidYMid meet">

<g transform="translate(0.000000,512.000000) scale(0.100000,-0.100000)"
fill="#000000" stroke="none">
<path d="M1770 4809 c-70 -14 -120 -55 -155 -127 l-30 -61 -176 -1 c-122 0
-179 -4 -187 -12 -7 -7 -12 -33 -12 -60 l0 -47 -408 -3 -408 -3 -43 -28 c-27
-18 -50 -44 -62 -70 -18 -41 -19 -98 -19 -1995 0 -1618 2 -1958 14 -1985 21
-50 77 -94 138 -106 38 -8 654 -11 2148 -9 1993 3 2097 4 2135 21 53 24 103
72 126 122 18 38 19 89 19 1117 0 592 -3 1084 -6 1093 -13 34 -59 45 -184 45
-161 0 -179 -9 -192 -95 -3 -18 -12 -20 -76 -23 l-72 -3 0 41 c0 22 4 40 9 40
5 0 17 7 25 16 13 13 16 44 16 183 0 116 -4 171 -12 179 -17 17 -559 17 -576
0 -8 -8 -12 -63 -12 -179 0 -139 3 -170 16 -183 8 -9 20 -16 25 -16 5 0 9 -18
9 -40 l0 -40 -115 0 -115 0 0 38 c0 32 5 41 25 50 l25 12 0 173 c0 121 -4 177
-12 185 -7 7 -29 12 -50 12 l-38 0 0 653 c0 619 -1 654 -19 694 -12 26 -35 52
-62 70 l-43 28 -408 3 -408 3 0 47 c0 27 -5 53 -12 60 -8 8 -65 12 -187 12
l-176 1 -30 61 c-52 105 -127 139 -299 137 -44 -1 -101 -5 -126 -10z m290 -88
c44 -23 78 -72 86 -123 4 -22 14 -43 25 -48 10 -6 92 -10 183 -10 l166 0 0
-195 0 -195 -615 0 -615 0 0 195 0 195 166 0 c91 0 173 4 183 10 11 5 21 26
25 48 8 51 42 100 86 123 28 16 57 19 155 19 98 0 127 -3 155 -19z m-850 -381
l0 -80 -315 0 c-331 0 -363 -4 -379 -45 -3 -9 -6 -808 -6 -1775 l0 -1759 24
-28 24 -28 615 -3 614 -3 5 -69 c4 -49 13 -86 31 -120 l26 -50 -705 0 c-783 0
-756 -2 -788 65 -14 30 -16 225 -16 1954 0 2073 -3 1967 51 2005 21 14 70 16
421 16 l398 0 0 -80z m2209 64 c51 -36 51 -36 51 -719 l0 -635 -85 0 -85 0 0
574 c0 316 -3 582 -6 591 -16 41 -48 45 -379 45 l-315 0 0 80 0 80 398 0 c351
0 400 -2 421 -16z m-2209 -261 c0 -73 -54 -68 695 -68 749 0 695 -5 695 68 l0
37 315 0 315 0 0 -565 0 -565 -85 0 c-73 0 -86 -3 -95 -19 -6 -11 -10 -88 -10
-180 0 -132 3 -162 16 -175 8 -9 22 -16 30 -16 11 0 14 -10 12 -37 l-3 -38
-117 -3 -118 -3 0 38 c0 30 5 40 23 48 21 10 22 14 25 186 2 141 0 178 -11
188 -10 8 -93 11 -293 9 l-279 -3 0 -185 c0 -182 0 -185 23 -195 17 -8 22 -18
22 -47 l0 -38 -94 0 -93 0 -7 39 c-4 26 -15 47 -32 60 -24 19 -40 21 -160 21
-126 0 -134 -1 -161 -24 l-28 -24 -3 -976 -2 -976 -603 2 -602 3 -3 1738 -2
1737 315 0 315 0 0 -37z m1630 -1288 l0 -115 -225 0 -225 0 0 115 0 115 225 0
225 0 0 -115z m720 0 l0 -115 -220 0 -220 0 0 115 0 115 220 0 220 0 0 -115z
m730 0 l0 -115 -220 0 -220 0 0 115 0 115 220 0 220 0 0 -115z m-1510 -235 l0
-40 -167 2 -168 3 -3 38 -3 37 170 0 171 0 0 -40z m730 0 l0 -40 -170 0 -170
0 0 40 0 40 170 0 170 0 0 -40z m730 0 l0 -40 -170 0 -170 0 0 40 0 40 170 0
170 0 0 -40z m-2138 -957 l3 -958 22 -31 c44 -62 -17 -59 1205 -59 l1117 0 28
21 c15 12 36 35 45 51 17 28 18 94 18 981 l0 952 120 0 120 0 -2 -1062 -3
-1063 -23 -37 c-13 -21 -40 -45 -66 -57 l-43 -21 -1336 2 c-1331 3 -1336 3
-1363 24 -15 11 -37 33 -48 48 -21 27 -21 34 -24 1097 l-2 1069 115 0 115 0 2
-957z m2366 725 l3 -118 -1146 0 -1145 0 0 113 c0 63 3 117 6 120 4 4 518 5
1143 4 l1136 -2 3 -117z m-2098 -748 c0 -597 -1 -582 56 -657 85 -112 293
-110 378 2 56 73 56 72 56 661 l0 544 119 0 119 0 1 -555 c1 -543 1 -556 22
-600 40 -86 121 -136 218 -136 98 -1 176 47 224 136 22 39 22 48 25 598 l3
557 114 0 114 0 3 -552 c3 -613 1 -593 71 -667 64 -67 184 -94 268 -58 53 22
110 76 133 127 20 44 21 62 24 598 l3 552 74 0 75 0 0 -724 c0 -717 0 -724
-21 -750 l-20 -26 -1103 0 c-981 0 -1104 2 -1124 16 l-22 15 0 735 0 734 95 0
95 0 0 -550z m410 485 l0 -65 -167 2 -168 3 -3 63 -3 62 171 0 170 0 0 -65z
m730 0 l0 -65 -170 0 -170 0 0 65 0 65 170 0 170 0 0 -65z m730 0 l0 -65 -170
0 -170 0 0 65 0 65 170 0 170 0 0 -65z m-1460 -280 l0 -145 -170 0 -170 0 0
138 c0 76 3 142 7 145 3 4 80 7 170 7 l163 0 0 -145z m730 0 l0 -145 -170 0
-170 0 0 145 0 145 170 0 170 0 0 -145z m730 0 l0 -145 -170 0 -170 0 0 145 0
145 170 0 170 0 0 -145z m-1460 -488 c0 -292 -3 -309 -70 -354 -94 -65 -229
-17 -259 92 -6 24 -11 137 -11 283 l0 242 170 0 170 0 0 -263z m730 1 c0 -260
0 -261 -25 -304 -33 -55 -98 -89 -161 -81 -53 6 -83 24 -121 73 l-28 37 -3
269 -3 268 170 0 171 0 0 -262z m730 7 c0 -284 -3 -299 -63 -352 -64 -56 -150
-56 -214 0 -60 53 -63 68 -63 352 l0 255 170 0 170 0 0 -255z"/>
<path d="M763 3813 c-10 -4 -13 -79 -13 -328 0 -310 1 -325 19 -335 12 -6 131
-10 316 -10 185 0 304 4 316 10 18 10 19 25 19 334 0 286 -2 325 -16 330 -19
7 -623 7 -641 -1z m587 -333 l0 -260 -265 0 -265 0 0 260 0 260 265 0 265 0 0
-260z"/>
<path d="M1673 3773 c-20 -7 -15 -51 6 -63 13 -6 230 -10 636 -10 406 0 623 4
636 10 23 13 25 55 3 64 -19 7 -1263 7 -1281 -1z"/>
<path d="M1673 3533 c-20 -7 -15 -51 6 -63 13 -6 230 -10 636 -10 406 0 623 4
636 10 23 13 25 55 3 64 -19 7 -1263 7 -1281 -1z"/>
<path d="M1673 3293 c-20 -7 -15 -51 6 -63 13 -6 230 -10 636 -10 406 0 623 4
636 10 23 13 25 55 3 64 -19 7 -1263 7 -1281 -1z"/>
<path d="M763 3003 c-10 -4 -13 -79 -13 -328 0 -310 1 -325 19 -335 12 -6 131
-10 316 -10 185 0 304 4 316 10 18 10 19 25 19 334 0 286 -2 325 -16 330 -19
7 -623 7 -641 -1z m587 -333 l0 -260 -265 0 -265 0 0 260 0 260 265 0 265 0 0
-260z"/>
<path d="M763 2193 c-10 -4 -13 -79 -13 -328 0 -310 1 -325 19 -335 12 -6 131
-10 316 -10 185 0 304 4 316 10 18 10 19 25 19 334 0 286 -2 325 -16 330 -19
7 -623 7 -641 -1z m587 -333 l0 -260 -265 0 -265 0 0 260 0 260 265 0 265 0 0
-260z"/>
</g>
</svg>
