<?xml version="1.0" standalone="no"?>
<!DOCTYPE svg PUBLIC "-//W3C//DTD SVG 20010904//EN"
 "http://www.w3.org/TR/2001/REC-SVG-20010904/DTD/svg10.dtd">
<svg version="1.0" xmlns="http://www.w3.org/2000/svg"
 width="36px" height="36px" viewBox="0 0 512.000000 512.000000"
 preserveAspectRatio="xMidYMid meet">

<g transform="translate(0.000000,512.000000) scale(0.100000,-0.100000)"
fill="#000000" stroke="none">
<path d="M1895 5114 c-16 -2 -70 -9 -120 -15 -353 -43 -724 -204 -1017 -443
-48 -39 -93 -83 -99 -98 -24 -59 35 -121 93 -99 14 5 52 32 86 60 556 463
1305 571 1947 281 425 -191 776 -577 926 -1020 266 -779 -19 -1635 -706 -2125
-327 -233 -754 -359 -1155 -341 -458 20 -859 196 -1177 513 -460 460 -626
1154 -430 1798 67 217 164 404 313 601 71 93 78 111 65 147 -13 33 -43 49 -84
45 -27 -3 -43 -18 -107 -100 -513 -660 -569 -1567 -140 -2260 376 -606 1062
-952 1778 -898 363 28 698 144 991 343 l73 50 131 -131 130 -130 -16 -26 c-10
-14 -17 -40 -17 -57 0 -28 18 -50 133 -166 113 -112 138 -133 164 -133 46 0
83 34 83 76 0 31 -12 47 -95 132 l-94 97 177 178 177 177 512 -512 513 -513
-177 -177 -178 -178 -345 345 c-323 322 -349 345 -381 345 -46 0 -79 -34 -79
-80 0 -31 30 -64 372 -406 204 -205 384 -378 399 -385 16 -6 39 -9 51 -6 13 4
137 120 276 260 213 215 252 258 252 283 0 25 -82 110 -592 621 -637 637 -613
617 -674 576 l-26 -16 -130 130 -131 131 45 64 c174 247 287 542 339 883 18
114 14 417 -5 544 -65 419 -243 775 -534 1068 -294 297 -648 479 -1070 548
-86 15 -388 27 -447 19z m1717 -3606 l-102 -103 -123 123 -124 123 101 103
101 102 125 -123 125 -123 -103 -102z"/>
<path d="M1765 4770 c-187 -33 -335 -80 -478 -151 -524 -263 -880 -766 -947
-1341 -17 -144 -8 -381 20 -513 102 -485 402 -884 829 -1103 242 -125 479
-182 748 -182 576 1 1097 285 1426 778 176 264 277 599 277 922 0 810 -571
1472 -1375 1596 -127 19 -376 17 -500 -6z m371 -140 c365 -28 668 -166 924
-420 165 -163 276 -345 350 -570 50 -152 70 -284 70 -461 0 -151 -8 -217 -41
-362 l-21 -87 -41 32 c-69 53 -329 317 -401 408 -37 47 -105 141 -151 210
l-83 125 -12 177 -11 177 -103 236 c-107 248 -137 298 -192 321 -78 33 -185 5
-225 -59 -10 -18 -47 -117 -81 -222 -34 -104 -64 -193 -68 -197 -3 -4 -73 -16
-155 -28 -83 -11 -164 -22 -182 -25 -25 -5 -57 -34 -157 -144 l-126 -137 -283
-64 c-314 -70 -347 -80 -393 -115 -46 -35 -84 -117 -84 -180 0 -83 37 -143
142 -233 62 -53 108 -103 150 -164 76 -110 123 -153 190 -172 86 -25 241 -45
416 -55 90 -5 164 -10 166 -12 5 -7 198 -970 194 -973 -1 -1 -48 1 -103 5
-642 47 -1165 500 -1305 1130 -37 163 -42 392 -15 569 23 148 101 365 181 505
267 464 739 758 1269 788 28 2 52 4 55 5 3 1 59 -3 126 -8z m231 -362 c5 -7
52 -110 103 -228 l93 -215 13 -182 12 -181 51 -86 c141 -233 422 -556 634
-731 l84 -69 -25 -55 c-14 -31 -50 -96 -80 -144 -192 -313 -498 -554 -842
-665 -136 -43 -186 -52 -260 -44 l-65 7 -107 525 c-124 613 -107 570 -236 570
-200 0 -527 38 -569 66 -13 8 -50 54 -82 103 -37 54 -87 112 -128 147 -122
106 -133 119 -133 156 0 63 16 69 360 147 l315 71 60 62 c33 35 91 96 128 137
l68 74 127 18 c70 10 130 18 133 19 3 0 9 -27 13 -61 14 -138 115 -238 242
-241 67 -1 103 42 83 100 -11 31 -30 43 -96 61 -57 16 -73 47 -73 147 0 67 8
101 65 277 74 227 86 249 112 215z"/>
<path d="M1782 3583 c-16 -6 -42 -56 -42 -82 0 -61 56 -103 109 -82 48 20 64
77 36 130 -19 38 -60 51 -103 34z"/>
</g>
</svg>
