<svg width="52" height="46" viewBox="0 0 52 46" fill="none" xmlns="http://www.w3.org/2000/svg">
<path d="M16.875 0.500001C19.825 0.0750005 22.95 3.3 23.85 7.75C24.75 12.175 23.125 16.125 20.175 16.575C17.25 17.025 14.1 13.8 13.175 9.35C12.25 4.925 13.925 0.975 16.875 0.500001ZM34.75 0.500001C37.725 0.975 39.375 4.925 38.5 9.35C37.55 13.8 34.425 17.025 31.475 16.575C28.5 16.125 26.875 12.175 27.8 7.75C28.7 3.3 31.825 0.0750005 34.75 0.500001ZM3.50001 12C6.35001 10.775 10.225 13 12.25 16.875C14.15 20.825 13.5 24.975 10.675 26.2C7.85001 27.425 4.00001 25.225 2.02501 21.3C0.0500103 17.375 0.75001 13.2 3.50001 12ZM48.5 12C51.25 13.2 51.95 17.375 49.975 21.3C48 25.225 44.15 27.425 41.325 26.2C38.5 24.975 37.85 20.825 39.75 16.875C41.775 13 45.65 10.775 48.5 12ZM44.325 38.95C44.425 41.3 42.625 43.9 40.475 44.875C36 46.925 30.7 42.675 25.725 42.675C20.75 42.675 15.4 47.1 11 44.875C8.50001 43.65 6.77501 40.4 7.10001 37.7C7.55001 33.975 12.025 31.975 14.675 29.25C18.2 25.725 20.7 19.1 25.725 19.1C30.725 19.1 33.375 25.625 36.75 29.25C39.525 32.3 44.15 34.875 44.325 38.95Z" fill="#000857"/>
</svg>
