<?xml version="1.0" standalone="no"?>
<!DOCTYPE svg PUBLIC "-//W3C//DTD SVG 20010904//EN"
 "http://www.w3.org/TR/2001/REC-SVG-20010904/DTD/svg10.dtd">
<svg version="1.0" xmlns="http://www.w3.org/2000/svg"
 width="36px" height="36px" viewBox="0 0 512.000000 512.000000"
 preserveAspectRatio="xMidYMid meet">

<g transform="translate(0.000000,512.000000) scale(0.100000,-0.100000)"
fill="#000000" stroke="none">
<path d="M2955 5110 c-897 -101 -1614 -800 -1730 -1686 -39 -295 0 -674 94
-911 l20 -52 -117 -97 c-240 -200 -552 -532 -743 -789 -169 -229 -330 -520
-402 -730 -147 -425 -65 -723 223 -821 88 -30 275 -26 411 9 251 65 503 189
797 394 174 121 202 148 202 188 0 41 -32 75 -69 75 -17 0 -70 -32 -149 -90
-291 -212 -570 -357 -812 -421 -64 -17 -114 -23 -200 -23 -107 -1 -119 1 -172
27 -111 55 -153 139 -151 302 2 164 54 330 178 575 156 306 379 603 685 911
143 144 360 339 378 339 4 0 23 -30 42 -68 160 -309 449 -603 771 -783 l109
-61 -31 -39 c-63 -80 -200 -228 -327 -355 -142 -142 -151 -158 -111 -208 33
-42 67 -35 144 30 75 64 304 308 403 430 l65 81 103 -33 c630 -200 1310 -72
1824 343 102 83 263 250 339 353 193 260 318 561 367 885 22 149 22 425 0 565
-106 658 -494 1184 -1089 1476 -149 73 -179 82 -212 60 -62 -41 -52 -106 22
-137 376 -162 643 -380 853 -699 356 -542 392 -1234 94 -1810 -458 -883 -1533
-1232 -2415 -784 -469 238 -810 664 -938 1172 -68 267 -68 607 0 874 209 826
976 1402 1819 1365 74 -4 164 -11 200 -17 35 -6 74 -9 87 -5 29 7 55 57 47 90
-9 36 -37 51 -119 65 -93 15 -390 21 -490 10z"/>
<path d="M3190 4520 c-26 -26 -25 -65 1 -125 41 -93 60 -178 66 -299 l6 -118
-54 8 c-30 4 -94 8 -144 8 -81 1 -93 4 -125 27 -185 140 -432 128 -594 -27
-99 -94 -140 -200 -134 -344 3 -82 8 -105 36 -165 18 -38 44 -82 58 -96 23
-24 25 -34 28 -150 2 -68 7 -134 11 -146 7 -23 6 -23 -88 -23 -110 0 -213 19
-301 56 -33 14 -69 28 -78 31 -33 10 -68 -7 -84 -41 -15 -30 -15 -35 0 -64 13
-24 32 -37 96 -61 140 -54 185 -63 355 -68 l160 -5 35 -61 c19 -33 64 -91 99
-129 l64 -69 -141 -142 c-131 -131 -142 -145 -142 -179 0 -43 27 -68 75 -68
25 0 52 22 172 142 l142 142 58 -55 c32 -30 79 -69 105 -87 l47 -32 -6 -68
c-15 -184 72 -500 143 -518 38 -10 77 7 92 39 12 25 10 36 -22 115 -19 48 -42
127 -51 176 -16 92 -20 186 -8 186 3 0 45 -7 92 -16 384 -73 762 169 862 552
31 119 28 308 -7 397 -5 15 3 17 77 17 98 0 178 -17 290 -62 91 -35 122 -33
148 14 26 46 7 78 -69 115 -113 56 -207 76 -373 81 l-148 4 -15 29 c-8 16 -44
60 -79 98 -36 38 -65 72 -65 77 0 4 63 72 140 149 153 155 163 173 115 220
-47 48 -65 38 -220 -115 -77 -77 -145 -140 -149 -140 -5 0 -39 29 -77 64 -37
36 -94 79 -126 97 l-58 32 -1 146 c0 160 -12 228 -64 360 -17 42 -40 84 -51
94 -28 23 -74 22 -99 -3z m-449 -562 c22 -6 39 -14 39 -18 0 -3 -17 -14 -37
-24 -111 -53 -240 -175 -304 -286 -58 -102 -55 -101 -69 -50 -17 63 -8 175 18
226 29 57 114 131 171 148 57 18 131 20 182 4z m532 -146 c44 -14 87 -32 98
-41 18 -15 17 -19 -44 -108 -132 -196 -288 -369 -467 -518 -86 -71 -253 -189
-285 -201 -11 -5 -22 10 -41 52 -129 291 -11 634 266 778 78 40 117 53 195 65
85 13 187 3 278 -27z m383 -294 c109 -112 146 -157 171 -209 90 -183 88 -391
-5 -564 -21 -38 -42 -70 -47 -72 -6 -2 -140 127 -299 286 l-288 288 58 64 c63
70 182 227 229 301 17 27 33 48 36 48 3 0 69 -64 145 -142z m-16 -978 c-45
-34 -130 -71 -213 -92 -155 -39 -332 -6 -467 86 -36 25 -118 98 -183 164
l-118 118 113 76 c62 43 158 116 213 163 l100 85 290 -290 290 -291 -25 -19z"/>
<path d="M685 1051 c-230 -61 -305 -345 -134 -509 111 -108 299 -108 409 -1
150 146 114 390 -73 485 -52 27 -150 39 -202 25z m154 -168 c62 -47 84 -147
43 -202 -64 -87 -169 -95 -240 -18 -64 68 -35 194 52 233 40 18 111 12 145
-13z"/>
</g>
</svg>
