<?xml version="1.0" standalone="no"?>
<!DOCTYPE svg PUBLIC "-//W3C//DTD SVG 20010904//EN"
 "http://www.w3.org/TR/2001/REC-SVG-20010904/DTD/svg10.dtd">
<svg version="1.0" xmlns="http://www.w3.org/2000/svg"
 width="512.000000pt" height="512.000000pt" viewBox="0 0 512.000000 512.000000"
 preserveAspectRatio="xMidYMid meet">

<g transform="translate(0.000000,512.000000) scale(0.100000,-0.100000)"
fill="#000000" stroke="none">
<path d="M965 5033 c-133 -19 -313 -91 -436 -173 -82 -56 -213 -187 -269 -269
-59 -88 -124 -230 -152 -331 l-23 -85 0 -1620 0 -1620 28 -90 c110 -355 359
-613 692 -718 157 -49 130 -48 1805 -45 l1575 3 90 28 c355 110 613 358 718
692 49 157 48 130 45 1805 l-3 1575 -28 90 c-59 190 -142 332 -271 461 -129
129 -271 212 -461 271 l-90 28 -1595 1 c-877 1 -1608 -1 -1625 -3z m3181 -154
c191 -33 359 -124 495 -265 108 -114 168 -216 216 -371 l28 -88 0 -1595 0
-1595 -28 -88 c-48 -155 -108 -257 -216 -371 -114 -118 -234 -192 -398 -243
l-88 -28 -1590 0 -1590 0 -79 23 c-161 47 -274 111 -390 221 -118 114 -192
234 -243 398 l-28 88 -3 1550 c-2 1126 0 1570 8 1623 30 192 121 364 266 503
132 126 269 198 444 234 84 17 3100 21 3196 4z"/>
<path d="M2059 4176 c-80 -21 -130 -61 -305 -238 -205 -208 -219 -231 -219
-363 0 -145 -10 -131 459 -602 l410 -413 -410 -412 c-469 -472 -459 -458 -459
-603 0 -133 14 -155 224 -368 193 -195 244 -231 352 -243 65 -7 150 14 208 51
20 13 345 333 722 712 769 771 724 717 724 868 0 142 33 103 -752 887 l-698
696 -69 21 c-77 24 -120 25 -187 7z m136 -151 c23 -5 200 -176 717 -692 614
-614 688 -691 699 -730 26 -94 55 -60 -689 -806 -372 -373 -689 -685 -704
-693 -35 -18 -121 -18 -156 0 -46 25 -350 338 -367 378 -43 104 -42 105 455
603 410 410 440 443 440 475 0 32 -30 65 -440 475 -300 301 -444 452 -455 477
-20 49 -19 84 4 133 24 51 346 371 381 379 46 10 65 12 75 10 6 -1 24 -5 40
-9z"/>
</g>
</svg>
