<?xml version="1.0" standalone="no"?>
<!DOCTYPE svg PUBLIC "-//W3C//DTD SVG 20010904//EN"
 "http://www.w3.org/TR/2001/REC-SVG-20010904/DTD/svg10.dtd">
<svg version="1.0" xmlns="http://www.w3.org/2000/svg"
 width="36px" height="36px" viewBox="0 0 512.000000 512.000000"
 preserveAspectRatio="xMidYMid meet">

<g transform="translate(0.000000,512.000000) scale(0.100000,-0.100000)"
fill="#000000" stroke="none">
<path d="M2438 4940 c-268 -49 -490 -244 -574 -505 -40 -125 -44 -326 -7 -421
4 -12 -51 -14 -358 -14 -200 0 -382 -5 -403 -10 -22 -5 -52 -21 -67 -37 -45
-47 -411 -673 -416 -713 -5 -42 20 -95 58 -123 20 -15 50 -21 118 -25 l91 -5
0 -1228 0 -1229 -38 0 c-22 0 -62 -12 -93 -27 -168 -86 -167 -323 3 -407 l52
-26 1762 0 1762 0 53 28 c62 32 113 99 124 162 23 139 -89 270 -232 270 l-53
0 0 1229 0 1228 83 5 c125 6 177 48 177 139 0 37 -24 82 -196 373 -107 182
-206 341 -218 354 -13 13 -40 27 -62 32 -21 5 -196 10 -388 10 -327 0 -348 1
-341 18 28 74 33 247 9 355 -21 95 -91 238 -151 308 -96 113 -223 197 -358
239 -79 24 -258 35 -337 20z m332 -70 c190 -64 321 -177 410 -352 133 -265 72
-608 -146 -807 -69 -63 -168 -123 -254 -152 -88 -30 -276 -38 -372 -15 -309
72 -528 351 -528 671 0 316 212 587 522 666 100 26 275 20 368 -11z m-858
-993 c128 -247 374 -397 653 -397 280 0 526 149 653 397 l37 73 377 -2 c362
-3 378 -4 397 -23 11 -11 106 -165 210 -342 152 -256 191 -329 191 -357 0 -44
-26 -73 -72 -81 -18 -3 -847 -4 -1841 -3 l-1809 3 -24 28 c-13 15 -24 39 -24
53 0 14 77 156 181 332 199 337 221 369 253 382 11 5 192 9 401 9 l380 1 37
-73z m2258 -1592 l0 -805 -1015 0 -1015 0 0 268 c0 261 -1 268 -24 319 -30 64
-87 108 -162 123 -35 7 -147 10 -317 8 -293 -4 -305 -6 -370 -73 -60 -62 -67
-102 -67 -392 l0 -253 -135 0 -135 0 0 805 0 805 1620 0 1620 0 0 -805z
m-2173 -157 c18 -10 45 -34 60 -55 l28 -36 3 -279 3 -278 -421 0 -420 0 0 262
c0 245 1 264 21 305 22 45 61 79 107 93 15 5 153 8 307 7 245 -2 284 -4 312
-19z m-797 -1098 l0 -400 -135 0 -135 0 0 400 0 400 135 0 135 0 0 -400z m890
0 l0 -400 -420 0 -420 0 0 400 0 400 420 0 420 0 0 -400z m2080 0 l0 -400
-1015 0 -1015 0 0 400 0 400 1015 0 1015 0 0 -400z m195 -473 c127 -72 124
-249 -5 -314 l-44 -23 -1751 0 c-1698 0 -1751 1 -1792 19 -81 37 -122 139 -89
225 18 46 43 74 91 99 27 15 205 16 1790 16 l1760 1 40 -23z"/>
<path d="M2396 4624 c-3 -9 -6 -67 -6 -130 l0 -114 -125 0 -125 0 2 -167 3
-168 123 -3 122 -3 0 -108 c0 -60 3 -116 6 -125 9 -24 329 -24 338 0 3 9 6 65
6 125 l0 108 123 3 122 3 3 168 2 167 -125 0 -125 0 0 114 c0 63 -3 121 -6
130 -5 14 -30 16 -169 16 -139 0 -164 -2 -169 -16z m294 -158 c0 -104 3 -125
16 -130 9 -3 65 -6 125 -6 l109 0 0 -120 0 -119 -122 -3 -123 -3 -5 -125 -5
-125 -120 0 -120 0 -3 128 -3 127 -124 0 -125 0 0 120 0 120 109 0 c60 0 116
3 125 6 13 5 16 26 16 130 l0 124 125 0 125 0 0 -124z"/>
<path d="M2511 2845 c-50 -16 -104 -64 -132 -117 -18 -35 -19 -64 -19 -498 0
-514 -2 -496 71 -568 63 -61 71 -62 716 -62 411 0 598 3 630 12 60 15 137 87
152 143 15 54 15 895 0 948 -13 47 -60 102 -113 130 -41 22 -44 22 -651 24
-496 2 -618 -1 -654 -12z m1274 -54 c46 -21 79 -54 94 -94 15 -39 15 -895 0
-934 -15 -42 -68 -92 -109 -103 -21 -6 -270 -10 -629 -10 -583 0 -596 0 -638
21 -29 14 -52 35 -68 63 l-25 43 0 454 c0 442 1 455 21 488 26 43 56 68 94 80
17 5 292 9 625 10 558 1 597 -1 635 -18z"/>
<path d="M3329 2537 c-87 -33 -129 -89 -137 -184 l-4 -51 -30 34 c-16 18 -55
46 -86 61 -74 36 -182 39 -253 6 -188 -86 -233 -337 -86 -481 46 -45 109 -76
174 -87 83 -13 223 43 265 107 l16 23 16 -40 c35 -84 98 -125 189 -125 71 0
135 40 166 102 20 41 21 60 21 269 0 213 -1 227 -22 269 -43 84 -146 128 -229
97z m137 -62 c50 -32 64 -71 64 -177 l0 -98 -145 0 -145 0 0 93 c0 114 16 152
81 185 50 26 102 25 145 -3z m-407 -125 l44 -22 -174 -174 c-96 -96 -177 -174
-181 -174 -4 0 -18 19 -30 43 -32 61 -32 156 2 221 28 55 79 101 136 122 53
20 148 12 203 -16z m103 -102 c35 -66 32 -177 -4 -240 -68 -115 -211 -158
-329 -98 -21 11 -39 24 -39 28 0 6 341 352 347 352 2 0 13 -19 25 -42z m368
-199 c0 -115 -16 -156 -73 -186 -43 -22 -113 -20 -146 5 -58 42 -71 76 -71
183 l0 99 145 0 145 0 0 -101z"/>
<path d="M1326 1394 c-13 -33 -6 -151 9 -164 26 -22 35 0 35 91 0 81 -2 89
-19 89 -10 0 -22 -7 -25 -16z"/>
</g>
</svg>
