<?xml version="1.0" standalone="no"?>
<!DOCTYPE svg PUBLIC "-//W3C//DTD SVG 20010904//EN"
 "http://www.w3.org/TR/2001/REC-SVG-20010904/DTD/svg10.dtd">
<svg version="1.0" xmlns="http://www.w3.org/2000/svg"
 width="36px" height="36px" viewBox="0 0 512.000000 512.000000"
 preserveAspectRatio="xMidYMid meet">

<g transform="translate(0.000000,512.000000) scale(0.100000,-0.100000)"
fill="#000000" stroke="none">
<path d="M2032 5099 c-69 -34 -86 -71 -150 -324 -65 -252 -70 -263 -125 -232
-17 11 -119 64 -226 119 -188 97 -196 100 -244 94 -96 -11 -167 -86 -167 -178
0 -24 16 -143 37 -265 29 -172 35 -225 26 -234 -9 -9 -66 -8 -251 4 -168 11
-250 13 -275 6 -98 -27 -161 -144 -127 -236 6 -15 70 -117 142 -226 107 -160
130 -202 122 -215 -6 -10 -106 -53 -225 -98 -251 -94 -250 -94 -286 -140 -21
-29 -28 -50 -31 -99 -7 -109 8 -125 270 -289 102 -64 189 -124 193 -133 4 -13
-42 -65 -174 -197 -99 -100 -185 -194 -191 -209 -13 -36 -13 -98 1 -134 13
-35 55 -80 93 -100 16 -9 133 -30 259 -48 145 -21 235 -39 244 -48 11 -11 12
-21 2 -60 -15 -55 -3 -92 37 -107 94 -36 161 143 92 247 -42 64 -84 78 -338
114 -124 17 -231 36 -237 41 -7 6 -13 18 -13 28 0 10 73 89 164 177 165 160
198 201 211 260 8 41 -10 105 -40 141 -14 16 -115 87 -225 157 -266 168 -268
151 26 260 122 45 235 92 252 103 55 40 84 132 62 198 -7 22 -71 126 -142 231
-70 106 -128 199 -128 207 0 31 34 34 276 18 l242 -15 48 24 c54 27 90 72 101
128 4 24 -6 110 -31 261 -20 124 -37 235 -36 247 1 46 33 36 249 -78 121 -63
228 -113 250 -116 70 -10 153 34 186 97 8 15 39 125 69 245 30 120 61 224 69
232 9 9 22 12 33 8 11 -3 85 -91 166 -194 160 -204 182 -223 268 -223 86 0
108 19 268 223 81 103 155 191 166 194 11 4 24 1 33 -8 8 -8 39 -112 69 -232
30 -120 61 -230 69 -245 33 -63 116 -107 186 -97 23 3 128 52 250 116 216 114
248 124 249 78 1 -12 -16 -123 -36 -247 -40 -241 -40 -272 -1 -331 50 -76 199
-108 252 -54 32 31 33 74 2 103 -18 17 -36 22 -75 22 -39 0 -54 4 -59 16 -3 9
11 114 31 233 20 119 36 235 36 259 0 92 -71 167 -166 178 -48 6 -57 3 -246
-95 -108 -55 -210 -109 -227 -119 -53 -30 -59 -18 -123 233 -38 150 -67 242
-82 266 -29 44 -97 79 -151 79 -81 0 -113 -27 -272 -230 -81 -104 -154 -191
-160 -194 -7 -3 -19 -3 -25 0 -7 3 -80 90 -161 194 -118 151 -157 193 -191
209 -54 27 -110 27 -164 0z"/>
<path d="M4353 4093 c-27 -5 -63 -48 -63 -74 0 -10 10 -30 23 -44 17 -21 32
-27 62 -27 47 0 75 -13 75 -33 0 -8 -62 -108 -137 -221 -136 -203 -137 -206
-138 -262 0 -68 24 -123 67 -154 17 -11 130 -58 252 -103 293 -108 291 -93 26
-261 -107 -67 -207 -136 -222 -153 -49 -55 -57 -133 -21 -205 8 -16 91 -103
184 -194 93 -90 169 -172 169 -182 0 -10 -6 -22 -12 -28 -7 -5 -114 -24 -238
-41 -253 -36 -296 -51 -337 -112 -51 -77 -46 -106 56 -361 50 -125 88 -234 85
-242 -3 -8 -12 -17 -20 -20 -8 -3 -119 24 -247 60 -259 73 -286 74 -354 25
-69 -50 -75 -75 -86 -346 -5 -132 -14 -246 -20 -252 -5 -7 -17 -13 -26 -13 -9
0 -90 62 -182 138 -91 75 -177 143 -192 150 -34 15 -106 16 -144 1 -36 -13
-89 -64 -102 -98 -15 -39 -61 -226 -61 -251 0 -28 43 -70 73 -70 48 0 66 28
96 146 15 61 31 116 35 123 17 26 56 4 204 -121 86 -72 177 -140 201 -151 88
-39 184 -4 236 84 17 30 21 62 28 264 9 259 11 270 32 279 8 3 120 -24 248
-60 249 -70 280 -73 344 -34 18 11 45 38 60 61 47 71 40 109 -62 367 -80 200
-87 224 -73 238 10 11 87 26 245 49 126 18 243 39 259 48 38 20 80 65 93 100
14 36 14 98 1 134 -6 15 -92 109 -191 209 -130 130 -178 185 -174 196 4 9 94
71 201 139 107 67 207 137 224 155 68 78 45 228 -43 276 -12 6 -118 48 -236
92 -118 45 -219 89 -225 98 -8 13 15 54 122 215 72 109 136 211 142 226 34 93
-29 209 -128 237 -37 10 -68 11 -109 3z"/>
<path d="M1586 4059 c-29 -23 -36 -73 -13 -101 6 -9 62 -43 123 -77 l111 -61
-9 -50 c-16 -88 17 -208 77 -278 67 -79 163 -123 271 -123 92 0 168 28 234 88
89 79 105 144 48 186 -28 20 -653 369 -755 421 -42 21 -55 20 -87 -5z m529
-409 c85 -47 155 -88 155 -91 0 -15 -77 -39 -127 -39 -72 0 -133 34 -167 93
-27 46 -45 132 -27 126 5 -2 80 -42 166 -89z"/>
<path d="M3086 3865 c-214 -118 -397 -222 -408 -231 -41 -38 -17 -106 62 -177
132 -119 337 -119 469 -1 85 76 132 207 113 311 l-9 52 111 61 c61 34 117 69
124 78 22 28 15 78 -14 101 -15 12 -34 21 -43 21 -9 0 -192 -97 -405 -215z
m90 -167 c-17 -105 -98 -179 -196 -180 -47 0 -130 26 -130 41 0 7 310 180 324
180 5 1 6 -18 2 -41z"/>
<path d="M2510 3080 c-30 -30 -27 -83 6 -109 15 -12 34 -21 44 -21 10 0 29 9
44 21 52 41 23 129 -44 129 -17 0 -39 -9 -50 -20z"/>
<path d="M3233 3085 c-32 -22 -37 -61 -13 -100 29 -47 166 -174 206 -191 58
-24 134 -18 185 15 60 39 186 171 195 205 10 41 -22 80 -70 84 -35 3 -43 -2
-125 -82 -48 -47 -96 -86 -106 -86 -10 0 -58 38 -106 85 -92 90 -120 102 -166
70z"/>
<path d="M1393 3075 c-24 -16 -36 -49 -53 -140 -26 -138 -25 -135 -80 -135
-64 0 -80 -7 -95 -44 -24 -56 12 -105 78 -106 20 0 37 -3 36 -7 0 -5 -8 -44
-18 -88 l-17 -80 -59 -7 c-71 -9 -95 -29 -95 -78 0 -48 24 -70 78 -70 23 0 42
-2 42 -4 0 -2 -9 -48 -20 -101 -11 -53 -20 -107 -20 -119 0 -30 40 -66 72 -66
51 0 67 26 96 160 l27 125 73 3 c39 2 72 1 72 -1 0 -3 -9 -49 -20 -102 -11
-53 -20 -107 -20 -119 0 -30 40 -66 72 -66 51 0 67 26 96 160 l27 125 52 3
c42 2 56 8 73 29 39 50 13 106 -55 119 -19 3 -35 9 -35 13 0 3 7 43 16 89 l17
82 49 0 c57 0 98 31 98 75 0 36 -42 75 -80 75 -36 0 -37 3 -10 125 23 101 17
134 -26 154 -36 16 -50 14 -78 -11 -19 -18 -29 -46 -46 -128 -12 -58 -23 -113
-26 -122 -4 -15 -17 -18 -75 -18 -81 0 -77 -8 -49 122 23 103 18 137 -26 157
-33 15 -45 14 -71 -4z m182 -447 c-3 -13 -11 -52 -18 -88 l-13 -65 -72 -3
c-40 -2 -72 1 -72 5 0 4 7 45 16 91 l17 82 74 0 c71 0 73 -1 68 -22z"/>
<path d="M2023 3066 l-28 -24 -3 -324 c-2 -177 0 -338 3 -356 12 -66 82 -95
125 -52 19 19 20 33 20 379 l0 360 -26 20 c-35 27 -57 26 -91 -3z"/>
<path d="M3030 2873 c-32 -12 -50 -37 -50 -71 0 -30 11 -46 85 -121 47 -48 85
-96 85 -106 0 -10 -39 -58 -86 -106 -80 -82 -85 -90 -82 -125 4 -48 43 -80 85
-70 36 9 198 172 218 220 19 46 19 119 0 160 -19 39 -192 212 -220 219 -11 3
-27 3 -35 0z"/>
<path d="M3940 2873 c-27 -9 -191 -177 -211 -215 -23 -45 -25 -115 -4 -165 20
-47 182 -209 219 -219 41 -10 80 22 84 70 3 35 -2 43 -82 125 -49 49 -86 96
-86 107 0 11 36 55 85 104 75 75 85 89 85 121 0 49 -47 87 -90 72z"/>
<path d="M2510 2820 c-18 -18 -20 -33 -20 -150 0 -120 2 -131 22 -150 12 -11
35 -20 51 -20 113 0 187 -138 125 -230 -37 -54 -69 -72 -128 -72 -80 0 -135
50 -151 138 -15 81 -80 111 -129 59 -20 -21 -22 -31 -18 -83 19 -199 236 -324
420 -240 110 51 169 136 176 259 4 66 1 84 -20 131 -34 74 -79 122 -144 154
l-54 26 0 58 c0 68 -15 117 -40 130 -30 16 -68 12 -90 -10z"/>
<path d="M3425 2351 c-50 -23 -212 -187 -220 -222 -9 -38 31 -82 74 -82 27 0
46 13 119 86 50 50 96 87 107 87 11 0 56 -36 105 -84 101 -101 127 -111 170
-68 16 17 30 40 30 53 0 29 -172 206 -225 230 -51 24 -109 24 -160 0z"/>
<path d="M2026 2158 c-53 -48 -25 -128 44 -128 67 0 96 88 44 129 -34 27 -57
26 -88 -1z"/>
<path d="M835 1546 c-31 -31 -58 -124 -49 -171 8 -46 55 -110 96 -132 57 -30
125 -21 355 45 117 34 219 59 227 56 22 -9 24 -20 31 -254 3 -118 11 -232 16
-252 27 -105 157 -168 254 -122 18 8 105 76 193 150 92 76 170 134 182 134 12
0 25 -10 30 -22 6 -13 53 -198 105 -413 52 -214 99 -407 105 -427 21 -75 102
-137 178 -138 63 0 138 45 167 100 7 14 31 100 54 192 30 126 38 174 31 192
-18 49 -82 61 -118 23 -15 -16 -33 -70 -60 -182 -39 -164 -54 -192 -89 -169
-12 7 -46 133 -123 445 -58 239 -111 443 -117 454 -17 31 -65 73 -96 84 -41
16 -113 13 -148 -5 -17 -8 -103 -76 -192 -150 -89 -74 -169 -134 -178 -134 -9
0 -21 6 -26 13 -6 6 -15 120 -20 252 -11 271 -17 296 -86 346 -68 49 -95 48
-354 -25 -128 -36 -239 -63 -247 -60 -23 9 -27 33 -11 72 19 44 12 86 -18 107
-31 22 -64 18 -92 -9z"/>
</g>
</svg>
