<?xml version="1.0" standalone="no"?>
<!DOCTYPE svg PUBLIC "-//W3C//DTD SVG 20010904//EN"
 "http://www.w3.org/TR/2001/REC-SVG-20010904/DTD/svg10.dtd">
<svg version="1.0" xmlns="http://www.w3.org/2000/svg"
 width="36px" height="36px" viewBox="0 0 512.000000 512.000000"
 preserveAspectRatio="xMidYMid meet">

<g transform="translate(0.000000,512.000000) scale(0.100000,-0.100000)"
fill="#000000" stroke="none">
<path d="M2341 4623 c-48 -98 -117 -235 -154 -305 l-67 -127 0 -1311 c0 -1244
-1 -1311 -17 -1306 -199 63 -443 3 -591 -145 -228 -228 -189 -585 82 -767 108
-72 194 -97 336 -96 100 0 124 4 188 28 138 52 246 132 311 230 l25 39 21 -29
c11 -16 49 -58 85 -94 149 -150 372 -212 574 -160 291 74 470 348 401 613 -58
223 -260 385 -503 404 -70 5 -183 -6 -227 -23 -13 -5 -15 140 -15 1310 l0
1316 -65 123 c-35 67 -105 202 -155 300 -81 158 -94 177 -116 177 -22 0 -34
-18 -113 -177z m79 -658 c0 -608 -1 -635 -18 -635 -37 0 -108 -31 -159 -70
l-53 -40 0 475 0 475 65 123 c36 67 86 164 110 215 25 50 47 92 50 92 3 0 5
-286 5 -635z m133 533 c26 -51 74 -144 107 -205 l60 -113 0 -482 0 -482 -27
26 c-43 39 -77 58 -140 78 l-58 18 -3 626 c-1 344 1 626 6 626 4 0 29 -42 55
-92z m4 -1253 c92 -39 150 -115 160 -209 7 -71 -15 -134 -69 -193 -120 -129
-334 -101 -426 55 -22 39 -27 59 -27 112 1 104 51 180 150 226 60 28 156 32
212 9z m-331 -466 c28 -31 93 -66 147 -80 l47 -11 0 -854 c0 -842 0 -854 -21
-909 -45 -122 -203 -243 -365 -281 -215 -50 -461 61 -555 251 -121 246 11 514
301 611 81 27 215 25 308 -4 57 -18 77 -20 88 -11 12 10 14 113 14 660 0 357
4 649 8 649 5 0 17 -9 28 -21z m494 -628 c0 -550 2 -650 14 -660 11 -10 29 -8
79 8 148 45 274 36 406 -30 269 -134 340 -440 156 -665 -107 -130 -329 -202
-495 -160 -157 39 -304 146 -360 261 l-25 50 -3 866 -3 866 47 12 c59 15 112
42 144 75 14 13 28 25 33 25 4 1 7 -291 7 -648z"/>
<path d="M2378 3133 c-34 -21 -68 -82 -68 -122 0 -93 96 -160 189 -133 114 35
138 192 38 252 -40 25 -121 26 -159 3z m132 -73 c44 -44 10 -114 -55 -114 -27
0 -43 6 -56 23 -24 30 -24 52 2 85 26 33 79 36 109 6z"/>
<path d="M1840 1381 c-90 -29 -174 -103 -212 -186 -32 -70 -31 -180 1 -253 31
-69 113 -144 189 -172 76 -29 193 -24 267 11 60 28 125 91 157 151 19 36 23
58 23 138 0 87 -3 100 -30 149 -33 60 -87 110 -154 143 -35 18 -66 23 -131 25
-47 1 -96 -1 -110 -6z m191 -76 c63 -22 113 -66 143 -127 82 -165 -40 -354
-230 -357 -101 -2 -202 57 -246 143 -28 53 -30 155 -4 206 64 124 204 180 337
135z"/>
<path d="M2903 1402 c-145 -52 -225 -158 -227 -302 -1 -66 3 -84 32 -142 48
-99 122 -154 235 -178 115 -23 237 18 319 109 62 69 82 129 76 231 -5 87 -31
142 -96 206 -82 81 -231 115 -339 76z m186 -68 c63 -18 136 -81 162 -139 37
-81 20 -189 -42 -259 -158 -179 -463 -73 -463 160 0 111 64 196 176 235 66 23
100 23 167 3z"/>
<path d="M3475 4526 c-18 -13 -17 -20 29 -192 26 -99 54 -185 61 -193 16 -16
43 -8 51 14 8 19 -72 330 -93 363 -16 26 -22 27 -48 8z"/>
<path d="M1438 4416 c-115 -47 -225 -140 -307 -260 -50 -72 -117 -214 -150
-316 -66 -209 -193 -706 -198 -780 -6 -89 11 -170 58 -261 17 -34 33 -85 36
-113 l5 -51 -72 -34 c-96 -45 -177 -126 -224 -222 -23 -47 -67 -187 -122 -384
-47 -170 -108 -388 -135 -484 -31 -108 -49 -193 -49 -226 0 -75 27 -149 73
-201 56 -64 107 -88 187 -89 116 0 214 66 266 180 12 27 213 759 445 1625 232
866 424 1582 426 1591 15 54 -132 69 -239 25z m152 -58 c0 -6 -100 -384 -222
-839 l-221 -828 -76 -16 c-42 -9 -85 -19 -97 -22 -19 -4 -22 1 -27 47 -3 28
-25 93 -49 143 -40 87 -42 97 -42 182 0 82 8 120 93 435 51 190 110 390 132
446 86 220 239 393 397 450 47 17 112 18 112 2z m-470 -1757 c0 -5 -83 -318
-184 -696 -202 -751 -204 -756 -289 -809 -55 -34 -132 -39 -184 -13 -65 34
-113 121 -113 206 0 70 258 980 302 1063 65 122 165 191 340 232 121 28 128
29 128 17z"/>
<path d="M709 2224 c-22 -27 3 -48 79 -68 83 -22 105 -17 100 21 -3 23 -11 28
-68 45 -80 22 -94 22 -111 2z"/>
<path d="M630 1931 c-17 -34 -1 -48 78 -70 83 -22 102 -18 102 25 0 19 -8 25
-42 34 -24 6 -59 15 -78 21 -47 12 -48 12 -60 -10z"/>
<path d="M551 1631 c-16 -29 7 -46 88 -67 71 -18 73 -18 87 0 21 30 1 51 -64
70 -75 21 -99 20 -111 -3z"/>
<path d="M3569 4077 c-58 -39 -63 -76 -28 -213 17 -64 28 -118 26 -120 -2 -3
-40 -15 -83 -27 -62 -18 -80 -27 -81 -42 -2 -11 116 -461 261 -1000 l263 -980
-61 -18 c-100 -30 -116 -38 -143 -74 -30 -40 -41 -110 -23 -153 18 -43 72 -87
117 -94 28 -5 72 3 163 28 69 19 126 34 126 33 8 -10 41 -148 36 -151 -4 -2
-24 -9 -45 -15 -44 -15 -86 -65 -94 -114 -6 -37 19 -137 43 -175 22 -34 74
-62 114 -62 19 0 152 32 295 70 242 66 262 73 295 106 33 33 35 38 35 102 0
51 -6 79 -25 116 -36 72 -67 91 -146 89 l-64 -1 -16 56 c-8 32 -18 64 -20 73
-4 13 20 22 123 49 96 26 135 41 160 63 61 53 68 146 16 207 -53 63 -103 73
-215 41 l-68 -19 -11 41 c-6 23 -125 467 -265 987 -167 625 -258 948 -269 956
-12 9 -32 7 -90 -9 -42 -11 -78 -17 -81 -14 -4 3 -20 55 -36 114 -24 92 -34
113 -63 141 -43 40 -95 43 -146 9z m105 -69 c11 -18 66 -201 66 -221 0 -3 -16
-8 -36 -11 -19 -4 -41 -9 -48 -12 -13 -5 -66 171 -66 220 0 45 59 62 84 24z
m306 -382 c19 -74 32 -137 30 -139 -7 -5 -433 -117 -446 -117 -6 0 -25 51 -42
113 -49 177 -70 150 173 217 116 32 219 58 230 59 18 1 25 -15 55 -133z m70
-267 c7 -27 10 -53 7 -56 -3 -3 -57 -19 -119 -35 -122 -33 -138 -41 -138 -70
0 -32 30 -33 156 0 67 18 124 32 127 32 8 0 31 -109 25 -115 -3 -3 -58 -20
-123 -38 -127 -34 -154 -53 -123 -84 17 -16 24 -15 125 11 164 44 149 44 162
-8 18 -73 20 -71 -96 -101 -146 -38 -179 -61 -138 -95 13 -11 38 -7 140 20 69
18 127 31 129 29 10 -10 34 -109 28 -113 -4 -2 -62 -18 -129 -36 -97 -26 -124
-37 -129 -52 -4 -12 0 -26 9 -35 14 -14 28 -12 132 16 64 17 122 31 130 31 8
0 18 -16 24 -37 21 -80 28 -73 -108 -109 -139 -37 -156 -49 -128 -88 12 -17
20 -16 144 17 l131 35 15 -60 c11 -44 12 -60 4 -63 -7 -2 -41 -11 -77 -20
-168 -42 -188 -52 -174 -89 10 -26 31 -25 155 9 68 19 124 33 125 32 6 -6 33
-111 30 -114 -2 -2 -37 -13 -77 -24 -41 -11 -97 -27 -125 -35 -52 -14 -68 -31
-58 -59 9 -22 45 -19 168 15 61 16 111 28 113 26 5 -5 73 -260 70 -262 -10 -9
-454 -121 -458 -116 -6 6 -418 1534 -423 1567 -1 9 443 135 455 128 4 -1 12
-26 19 -54z m696 -1563 c35 -29 39 -86 9 -116 -23 -22 -860 -250 -918 -250
-64 0 -100 79 -59 129 13 18 106 46 457 141 242 65 450 119 462 119 12 1 34
-10 49 -23z m-285 -366 c11 -39 19 -73 17 -74 -6 -5 -239 -66 -252 -66 -11 0
-52 137 -43 146 4 5 252 71 255 69 2 -1 12 -35 23 -75z m217 -132 c18 -16 45
-116 38 -144 -4 -13 -16 -30 -29 -38 -22 -15 -499 -146 -529 -146 -31 0 -59
35 -74 92 -13 51 -13 61 0 87 13 25 28 32 113 55 54 15 170 46 258 71 153 42
195 46 223 23z"/>
</g>
</svg>
