<?xml version="1.0" standalone="no"?>
<!DOCTYPE svg PUBLIC "-//W3C//DTD SVG 20010904//EN"
 "http://www.w3.org/TR/2001/REC-SVG-20010904/DTD/svg10.dtd">
<svg version="1.0" xmlns="http://www.w3.org/2000/svg"
 width="36px" height="36px" viewBox="0 0 512.000000 512.000000"
 preserveAspectRatio="xMidYMid meet">

<g transform="translate(0.000000,512.000000) scale(0.100000,-0.100000)"
fill="#000000" stroke="none">
<path d="M3580 4500 c-107 -14 -228 -69 -312 -140 -65 -56 -139 -171 -168
-261 -34 -104 -34 -244 -1 -347 99 -304 426 -473 730 -377 337 107 497 490
338 814 -41 84 -159 205 -242 248 -102 53 -237 78 -345 63z m162 -141 c179
-38 322 -191 347 -369 34 -247 -133 -467 -382 -503 -256 -37 -497 176 -497
437 0 119 41 217 126 306 109 115 255 161 406 129z"/>
<path d="M3773 4138 c-11 -13 -53 -77 -94 -142 -41 -66 -77 -123 -80 -129 -4
-5 -28 7 -53 27 -26 20 -54 36 -62 36 -43 0 -78 -47 -67 -89 3 -11 41 -50 85
-86 78 -63 113 -77 145 -57 21 14 243 375 243 397 0 61 -75 88 -117 43z"/>
<path d="M2191 4194 c-12 -15 -21 -34 -21 -44 0 -34 39 -70 75 -70 36 0 75 36
75 70 0 34 -39 70 -75 70 -24 0 -39 -7 -54 -26z"/>
<path d="M1009 4016 c-102 -27 -181 -95 -228 -196 -23 -49 -26 -70 -29 -190
-5 -154 6 -221 48 -296 l29 -51 -65 -6 c-122 -12 -211 -73 -258 -176 l-26 -59
2 -649 3 -648 23 -33 c29 -40 89 -72 137 -72 l35 0 0 -214 c0 -197 1 -215 20
-238 17 -22 21 -51 30 -194 6 -93 12 -186 14 -206 l4 -38 -77 0 c-93 0 -121
-15 -121 -64 0 -21 8 -40 21 -52 21 -19 68 -19 1989 -19 1921 0 1968 0 1989
19 29 26 28 80 -1 100 -12 9 -42 16 -65 16 l-43 0 0 445 0 445 80 0 c124 0
120 -10 120 273 0 214 -2 235 -18 250 -17 15 -58 17 -386 17 l-367 0 8 23 c4
12 8 235 8 496 l0 474 -27 20 c-36 27 -54 18 -169 -78 l-88 -75 -328 2 -328 3
-88 205 c-48 113 -95 211 -104 218 -24 18 -67 15 -86 -6 -9 -10 -24 -56 -34
-102 l-18 -84 -185 -37 c-241 -48 -249 -57 -187 -192 53 -114 129 -164 263
-174 71 -6 76 -8 109 -44 27 -30 35 -48 35 -77 0 -20 7 -138 15 -262 8 -124
15 -244 15 -267 l0 -43 -433 0 c-428 0 -434 0 -453 -21 -18 -19 -19 -39 -19
-249 0 -280 -4 -270 122 -270 l83 0 0 -445 0 -445 -271 0 -272 0 6 88 c4 48
10 142 13 209 6 101 10 126 25 139 18 16 19 45 19 576 l0 558 307 0 c291 0
309 1 350 21 92 44 122 171 60 252 -47 62 -70 67 -300 67 l-205 0 -4 193 c-3
174 -5 197 -26 242 -40 88 -121 155 -209 173 l-38 8 -5 254 c-5 253 -5 255
-32 305 -51 95 -123 154 -223 180 -70 18 -104 18 -166 1z m159 -142 c44 -18
87 -57 110 -99 14 -25 18 -69 20 -262 l4 -233 -114 0 c-97 0 -120 3 -163 24
-59 27 -96 67 -120 129 -13 35 -16 71 -13 185 3 137 4 141 33 183 56 79 157
110 243 73z m1617 -806 c27 -62 57 -123 68 -135 l20 -23 393 0 392 0 42 35
c23 19 44 35 46 35 2 0 4 -165 4 -367 0 -215 -4 -363 -9 -357 -5 5 -32 83 -60
174 -29 90 -59 172 -68 182 -20 23 -33 23 -156 -3 -135 -29 -306 -30 -397 -5
-101 29 -123 30 -143 9 -10 -12 -32 -85 -53 -179 -19 -87 -39 -162 -43 -167
-4 -4 -13 97 -20 225 -6 128 -15 262 -18 298 l-6 65 -76 78 -77 77 -78 0 c-86
0 -135 17 -160 55 l-15 23 165 32 c90 18 172 39 181 46 10 7 19 14 19 14 1 0
23 -51 49 -112z m-1289 46 c68 -50 69 -52 74 -313 4 -181 8 -242 19 -254 11
-14 34 -17 132 -17 l119 0 0 -34 0 -35 -221 -3 c-205 -3 -222 -4 -235 -22 -12
-17 -14 -112 -14 -578 l0 -558 -275 0 -275 0 0 725 0 726 -25 24 c-13 14 -34
25 -45 25 -11 0 -32 -11 -45 -25 l-25 -24 0 -351 0 -350 -35 0 -36 0 3 488 c3
466 4 488 23 520 11 19 38 45 60 58 l40 24 367 -2 c352 -3 368 -4 394 -24z
m608 -600 c12 -12 13 -20 6 -35 -9 -15 -22 -19 -70 -19 l-60 0 0 35 0 35 54 0
c36 0 60 -5 70 -16z m1463 -174 c23 -74 43 -141 43 -147 0 -10 -74 -13 -336
-13 -298 0 -335 2 -330 15 11 30 35 121 52 198 16 77 17 79 43 72 61 -15 306
-16 381 -1 41 8 81 13 89 13 10 -1 30 -50 58 -137z m938 -430 l0 -135 -1295 0
-1295 0 -3 138 -3 137 1298 -2 1298 -3 0 -135z m-3827 -62 c-3 -53 -6 -63 -22
-66 -28 -6 -46 25 -46 80 l0 48 35 0 36 0 -3 -62z m1502 -653 l0 -445 -30 0
-30 0 0 445 0 445 30 0 30 0 0 -445z m1920 0 l0 -445 -890 0 -890 0 0 445 0
445 890 0 890 0 0 -445z m200 0 l0 -445 -35 0 -35 0 0 445 0 445 35 0 35 0 0
-445z m-3280 -240 l0 -205 -69 0 -68 0 -7 108 c-3 59 -9 151 -13 205 l-6 97
82 0 81 0 0 -205z m306 178 c-2 -16 -7 -84 -11 -153 -3 -69 -8 -149 -11 -177
l-6 -53 -69 0 -69 0 0 205 0 205 86 0 86 0 -6 -27z"/>
<path d="M1965 3808 c-46 -26 -47 -73 -4 -123 l32 -36 -32 -32 c-38 -41 -42
-88 -9 -111 34 -24 63 -19 103 15 l35 31 35 -31 c90 -78 175 13 96 101 l-30
33 31 32 c39 40 42 87 9 115 -33 26 -56 22 -100 -17 l-38 -35 -19 21 c-19 21
-66 49 -81 49 -4 0 -17 -6 -28 -12z"/>
</g>
</svg>
