<?xml version="1.0" standalone="no"?>
<!DOCTYPE svg PUBLIC "-//W3C//DTD SVG 20010904//EN"
 "http://www.w3.org/TR/2001/REC-SVG-20010904/DTD/svg10.dtd">
<svg version="1.0" xmlns="http://www.w3.org/2000/svg"
 width="36px" height="36px" viewBox="0 0 512.000000 512.000000"
 preserveAspectRatio="xMidYMid meet">

<g transform="translate(0.000000,512.000000) scale(0.100000,-0.100000)"
fill="#000000" stroke="none">
<path d="M4122 4798 c-9 -9 -12 -96 -12 -328 l0 -316 -68 -17 c-37 -10 -80
-26 -96 -36 l-29 -19 -51 38 c-105 79 -125 84 -368 88 l-218 3 0 93 c0 174
-14 186 -219 186 -133 0 -141 -1 -168 -24 -27 -23 -28 -29 -33 -138 l-5 -113
-712 -3 -713 -2 0 100 c0 171 -16 183 -229 178 -185 -4 -184 -3 -191 -161 l-5
-112 -185 -5 -186 -5 -69 -34 c-90 -45 -162 -117 -206 -206 l-34 -70 0 -1440
0 -1440 31 -66 c39 -81 91 -141 167 -190 107 -69 103 -69 951 -69 l756 0 0 50
0 50 -745 0 c-754 0 -810 2 -880 37 -59 30 -112 82 -146 145 l-34 63 -3 1118
-2 1117 1685 0 1685 0 0 -1005 0 -1005 -75 0 c-86 0 -128 -14 -168 -58 -53
-55 -53 -139 -1 -194 49 -52 76 -58 269 -58 l175 0 0 -155 0 -155 -148 0
c-191 0 -182 8 -182 -167 0 -113 2 -132 18 -146 17 -15 65 -17 480 -17 405 0
462 2 476 16 13 12 16 41 16 148 0 90 -4 138 -12 149 -11 14 -36 17 -163 19
l-150 3 -3 153 -3 152 174 0 c159 0 176 2 217 23 86 43 116 135 67 208 -34 52
-97 79 -184 79 l-72 0 -3 1283 c-4 1239 -5 1284 -24 1352 -39 140 -102 208
-223 241 l-61 17 0 312 c0 289 -1 313 -18 328 -22 20 -53 22 -70 5z m-2792
-608 l0 -200 -110 0 -110 0 0 200 0 200 110 0 110 0 0 -200z m1840 0 l0 -200
-105 0 -105 0 0 200 0 200 105 0 105 0 0 -200z m-2160 -164 c0 -76 2 -86 25
-108 32 -32 62 -38 192 -38 170 0 203 24 203 152 l0 78 715 0 715 0 0 -83 c0
-131 23 -147 215 -147 172 0 205 25 205 158 l0 73 203 -3 c224 -3 253 -10 329
-77 l36 -32 -19 -53 c-26 -77 -39 -204 -39 -403 l0 -173 -1686 0 -1685 0 3
248 c3 233 4 250 26 298 31 69 105 139 178 169 54 23 73 25 222 25 l162 0 0
-84z m3246 9 c77 -23 121 -79 143 -183 8 -38 11 -423 11 -1322 l0 -1270 -255
0 -255 0 0 495 0 495 153 0 c167 0 197 8 197 55 0 47 -30 55 -197 55 l-153 0
0 100 0 100 84 0 c89 0 116 11 116 50 0 39 -27 50 -116 50 l-84 0 0 80 0 80
78 0 c87 0 122 16 122 55 0 39 -35 55 -122 55 l-78 0 0 80 0 80 165 0 c152 0
165 1 175 19 14 27 13 47 -6 65 -13 13 -43 16 -175 16 l-160 0 3 338 c4 375 8
399 72 461 59 57 179 77 282 46z m414 -2888 c18 -9 25 -21 25 -42 0 -54 -3
-55 -540 -55 -537 0 -540 1 -540 55 0 54 3 55 540 55 375 0 496 -3 515 -13z
m-450 -352 l0 -155 -65 0 -65 0 0 155 0 155 65 0 65 0 0 -155z m330 -320 l0
-65 -395 0 -395 0 0 65 0 65 395 0 395 0 0 -65z"/>
<path d="M2546 2966 c-21 -8 -54 -29 -72 -47 -90 -87 -64 -227 54 -285 l52
-26 0 -88 0 -87 -58 -5 c-77 -7 -148 -45 -205 -108 -81 -90 -77 -42 -77 -936
0 -780 0 -794 21 -849 28 -74 100 -146 174 -174 53 -20 75 -21 433 -21 l377 0
60 29 c74 34 137 102 162 174 17 48 18 107 18 847 l0 795 -33 68 c-53 108
-160 177 -274 177 l-38 0 0 90 c0 78 3 91 18 96 90 27 135 81 140 168 4 75
-16 118 -77 161 l-43 30 -296 2 c-235 2 -305 0 -336 -11z m631 -118 c30 -28
30 -74 1 -105 l-21 -23 -297 0 c-287 0 -298 1 -315 20 -27 30 -25 88 4 111 22
18 45 19 314 19 285 0 291 0 314 -22z m-137 -366 c0 -86 4 -132 12 -140 7 -7
40 -12 78 -12 85 0 133 -14 176 -52 66 -58 74 -87 74 -268 l0 -160 -312 0
c-296 0 -314 -1 -355 -21 -30 -15 -52 -35 -71 -67 l-27 -47 0 -365 c0 -201 3
-377 8 -392 10 -38 65 -98 104 -114 25 -11 105 -14 343 -14 l312 0 -4 -128
c-3 -120 -5 -131 -30 -169 -17 -26 -45 -50 -79 -67 l-53 -26 -353 0 c-385 0
-396 1 -457 58 -16 15 -37 45 -47 67 -18 38 -19 82 -19 810 0 516 4 783 11
809 14 50 82 118 135 134 23 6 67 12 99 12 90 0 95 8 95 157 l0 123 180 0 180
0 0 -128z m340 -1142 l0 -410 -305 0 -306 0 -24 25 -25 24 0 361 0 361 25 24
24 25 306 0 305 0 0 -410z"/>
<path d="M2973 2835 c-29 -21 -29 -59 -1 -79 29 -20 156 -22 182 -3 21 15 25
62 7 80 -7 7 -47 13 -89 15 -59 3 -82 -1 -99 -13z"/>
<path d="M2962 1648 c-17 -17 -15 -54 4 -72 13 -13 44 -16 184 -16 182 0 200
5 200 54 0 43 -14 46 -200 46 -124 0 -180 -4 -188 -12z"/>
<path d="M946 2856 c-49 -18 -94 -60 -117 -111 -17 -36 -19 -69 -19 -338 0
-246 3 -304 15 -335 20 -47 50 -79 98 -103 35 -19 57 -20 337 -17 l298 3 39
31 c21 17 48 48 61 70 22 39 22 43 20 360 l-3 321 -28 40 c-15 22 -46 50 -70
64 -41 24 -46 24 -317 26 -216 2 -283 0 -314 -11z m605 -125 l29 -29 0 -287
c0 -297 -2 -314 -44 -347 -19 -16 -50 -18 -283 -18 -168 0 -271 4 -286 11 -54
24 -57 43 -57 344 0 291 4 319 47 344 11 6 124 11 291 11 l274 0 29 -29z"/>
</g>
</svg>
