<?xml version="1.0" standalone="no"?>
<!DOCTYPE svg PUBLIC "-//W3C//DTD SVG 20010904//EN"
 "http://www.w3.org/TR/2001/REC-SVG-20010904/DTD/svg10.dtd">
<svg version="1.0" xmlns="http://www.w3.org/2000/svg"
 width="36px" height="36px" viewBox="0 0 512.000000 512.000000"
 preserveAspectRatio="xMidYMid meet">

<g transform="translate(0.000000,512.000000) scale(0.100000,-0.100000)"
fill="#FFFFFF" stroke="none">
<path d="M1707 5110 c-51 -9 -108 -46 -129 -83 -7 -12 -29 -62 -49 -111 l-36
-89 -79 -23 c-99 -29 -207 -73 -302 -124 -41 -22 -78 -40 -83 -40 -6 0 -52 18
-104 40 -164 70 -199 59 -372 -113 -172 -173 -183 -208 -113 -372 22 -52 40
-97 40 -101 0 -4 -25 -56 -55 -115 -50 -98 -125 -296 -125 -331 0 -16 -16 -24
-131 -69 -89 -34 -143 -86 -156 -148 -5 -20 -8 -110 -8 -201 0 -153 2 -168 24
-213 28 -58 45 -70 168 -122 l95 -40 39 -120 c21 -66 64 -170 95 -231 l56
-112 -41 -100 c-47 -115 -51 -163 -20 -223 27 -54 233 -259 284 -284 60 -30
116 -24 227 23 l97 41 116 -59 c64 -33 141 -67 171 -77 60 -19 57 -12 75 -137
6 -44 26 -134 44 -200 142 -519 502 -950 990 -1186 649 -315 1406 -233 1980
215 108 85 285 270 368 385 85 120 202 352 249 495 176 531 108 1109 -186
1583 -288 464 -783 789 -1315 864 l-95 14 -19 58 c-11 32 -46 110 -77 173
l-58 114 41 97 c71 169 58 211 -111 380 -168 168 -206 180 -373 110 l-100 -41
-122 61 c-99 49 -200 87 -333 127 -6 2 -26 41 -44 87 -71 181 -102 200 -324
204 -83 2 -173 -1 -199 -6z m303 -169 c20 -6 33 -27 72 -121 26 -62 54 -120
62 -128 7 -8 54 -25 104 -38 120 -32 264 -91 357 -148 42 -24 84 -48 95 -51
12 -4 65 13 140 44 66 28 124 51 130 51 19 0 210 -199 210 -218 0 -11 -20 -67
-45 -125 -25 -58 -45 -116 -45 -128 0 -12 20 -56 44 -98 45 -76 106 -205 106
-222 0 -5 -42 -9 -94 -9 l-93 0 -31 63 c-57 115 -135 221 -241 328 -180 181
-359 283 -606 345 -136 34 -357 43 -500 20 -270 -45 -505 -166 -700 -361 -150
-150 -244 -300 -310 -498 -52 -155 -68 -273 -62 -452 8 -206 44 -350 134 -528
117 -234 338 -454 571 -569 l62 -31 0 -94 c0 -93 0 -94 -22 -87 -47 14 -136
57 -209 100 -42 24 -86 44 -98 44 -12 0 -70 -20 -128 -45 -58 -25 -114 -45
-124 -45 -19 0 -219 191 -219 210 0 6 23 64 51 130 52 126 54 140 19 190 -59
84 -137 271 -184 441 -9 31 -23 63 -32 70 -9 8 -67 34 -128 59 -91 37 -111 49
-117 70 -9 32 -9 237 0 268 5 19 30 33 124 72 65 26 124 56 131 66 8 10 19 43
26 74 28 123 82 253 180 429 35 63 35 65 -27 205 -24 54 -43 103 -43 109 0 14
190 206 210 212 9 3 63 -15 121 -41 57 -25 118 -46 134 -46 19 -1 63 17 120
50 100 58 253 120 362 148 39 10 79 24 88 30 10 7 39 66 65 131 39 94 53 119
72 124 31 9 236 9 268 0z m143 -625 c296 -77 540 -268 700 -548 l28 -47 -28
-7 c-360 -83 -656 -241 -911 -488 -273 -264 -448 -577 -536 -959 l-7 -28 -47
28 c-157 90 -302 220 -391 352 -63 92 -128 236 -158 348 -23 86 -26 118 -27
263 -1 186 11 260 67 410 134 355 458 623 837 694 129 24 346 16 473 -18z
m1427 -766 c476 -102 877 -385 1122 -790 339 -562 327 -1259 -29 -1810 -501
-773 -1524 -1008 -2313 -532 -405 245 -689 647 -790 1122 -28 132 -38 403 -20
547 86 687 586 1261 1253 1438 169 45 255 54 472 51 161 -2 220 -7 305 -26z"/>
<path d="M2977 3390 c-315 -57 -590 -202 -818 -429 -386 -387 -537 -932 -403
-1464 217 -862 1128 -1357 1977 -1073 379 127 702 408 884 769 344 686 120
1530 -521 1959 -164 110 -324 178 -522 224 -164 37 -433 44 -597 14z m540
-175 c745 -166 1211 -871 1062 -1607 -53 -266 -179 -498 -374 -693 -195 -195
-427 -321 -693 -374 -327 -66 -675 -9 -953 156 -344 204 -571 521 -656 916
-26 117 -25 418 1 537 123 565 573 991 1141 1079 90 14 387 6 472 -14z"/>
<path d="M3185 3045 c-24 -23 -25 -30 -25 -145 0 -106 2 -122 20 -140 43 -43
110 -34 137 20 8 15 13 65 13 127 0 95 -2 104 -26 132 -33 40 -83 43 -119 6z"/>
<path d="M2420 2737 c-32 -16 -54 -61 -45 -95 3 -15 42 -62 85 -104 71 -71 82
-78 117 -78 51 0 83 32 83 83 0 31 -9 47 -67 108 -91 96 -123 112 -173 86z"/>
<path d="M3995 2740 c-11 -4 -55 -44 -99 -89 -75 -78 -78 -83 -73 -119 8 -46
38 -72 85 -72 31 0 46 10 119 83 73 74 83 88 83 119 0 28 -7 42 -31 62 -32 27
-50 31 -84 16z"/>
<path d="M3185 2535 l-25 -24 0 -334 c0 -316 1 -334 19 -354 22 -23 279 -113
322 -113 44 0 79 35 79 79 0 20 -6 45 -13 55 -7 10 -63 35 -123 56 l-109 37
-5 288 -5 287 -28 24 c-37 31 -81 31 -112 -1z"/>
<path d="M2075 1935 c-37 -36 -34 -86 6 -119 28 -24 37 -26 132 -26 62 0 112
5 127 13 54 27 63 94 20 137 -18 18 -34 20 -140 20 -115 0 -122 -1 -145 -25z"/>
<path d="M4125 1935 c-47 -46 -25 -124 39 -141 14 -3 70 -4 125 -2 112 3 135
15 147 74 4 24 0 37 -21 62 l-27 32 -119 0 c-114 0 -121 -1 -144 -25z"/>
<path d="M2464 1218 c-99 -98 -110 -127 -69 -176 21 -25 35 -32 62 -32 31 0
46 11 118 81 46 44 85 91 87 104 6 31 -15 81 -41 94 -46 25 -71 14 -157 -71z"/>
<path d="M3870 1287 c-32 -16 -54 -61 -45 -95 3 -15 42 -62 85 -104 69 -68 83
-78 115 -78 48 0 85 36 85 84 0 30 -10 47 -67 107 -91 96 -123 112 -173 86z"/>
<path d="M3185 995 c-24 -23 -25 -30 -25 -144 l0 -119 32 -27 c25 -21 38 -25
62 -21 59 12 71 35 74 147 2 55 1 111 -2 125 -17 64 -95 86 -141 39z"/>
</g>
</svg>
